<?xml version="1.0" standalone="no"?>
<!DOCTYPE svg PUBLIC "-//W3C//DTD SVG 20010904//EN"
 "http://www.w3.org/TR/2001/REC-SVG-20010904/DTD/svg10.dtd">
<svg version="1.0" xmlns="http://www.w3.org/2000/svg"
 width="1024.000000pt" height="1024.000000pt" viewBox="0 0 1024.000000 1024.000000"
 preserveAspectRatio="xMidYMid meet">
<metadata>
Created by potrace 1.11, written by Peter Selinger 2001-2013
</metadata>
<g transform="translate(0.000000,1024.000000) scale(0.100000,-0.100000)"
fill="#000000" stroke="none">
<path d="M1320 10229 c-335 -37 -635 -183 -880 -429 -250 -250 -391 -543 -429
-892 -15 -136 -15 -7440 0 -7576 56 -515 358 -947 826 -1181 148 -74 325 -123
508 -141 78 -8 1187 -10 3855 -8 l3745 3 100 23 c300 69 529 190 739 391 217
209 356 461 428 776 l23 100 3 3745 c2 2668 0 3777 -8 3855 -34 346 -169 639
-409 889 -244 253 -559 407 -913 445 -118 13 -7473 13 -7588 0z m4990 -3264
c358 -48 664 -235 862 -527 58 -84 136 -244 167 -338 103 -319 103 -729 -2
-1035 -118 -344 -377 -633 -690 -767 -476 -205 -1035 -104 -1387 251 -285 287
-429 720 -391 1173 31 374 154 653 394 893 137 137 242 205 432 282 183 73
401 97 615 68z m-3002 -848 c7 -8 12 -243 15 -707 3 -486 7 -708 16 -738 30
-112 90 -190 179 -234 92 -44 259 -23 378 48 64 38 140 108 180 165 l25 36 -3
555 -3 555 -30 49 c-51 82 -81 95 -242 110 l-73 6 0 59 c0 40 4 59 13 60 6 0
157 10 335 22 296 21 324 21 337 6 13 -13 15 -125 15 -772 0 -572 3 -763 12
-784 37 -85 99 -127 206 -138 l62 -7 0 -58 0 -58 -47 -6 c-27 -3 -162 -13
-300 -22 -203 -13 -256 -14 -268 -4 -12 10 -15 37 -15 132 l0 120 -77 -72
c-94 -88 -141 -120 -239 -167 -95 -45 -174 -62 -292 -63 -311 -1 -473 156
-512 500 -5 47 -10 301 -10 565 0 310 -4 494 -11 519 -22 79 -124 156 -208
156 -64 0 -71 8 -71 71 0 40 4 59 13 60 57 4 593 47 598 48 4 0 11 -5 17 -12z
m665 -2272 l57 -19 0 -44 c0 -31 -4 -42 -12 -38 -7 2 -44 15 -82 27 -113 36
-205 19 -274 -52 -96 -99 -74 -266 46 -336 41 -24 58 -28 127 -28 66 0 90 5
139 28 32 15 60 27 62 27 2 0 4 -20 4 -44 l0 -45 -57 -22 c-88 -33 -220 -32
-293 2 -110 51 -174 151 -173 269 1 123 71 226 189 276 49 21 71 24 134 21 41
-2 101 -12 133 -22z m514 -157 c45 -101 104 -234 132 -295 l50 -113 -43 0 -43
0 -38 85 -38 85 -126 0 -126 0 -35 -85 -35 -85 -44 0 c-30 0 -42 4 -38 13 4
10 201 471 237 555 7 15 18 22 38 22 26 0 32 -9 109 -182z m2201 158 c29 -15
32 -21 32 -61 0 -25 -2 -45 -5 -45 -2 0 -21 11 -41 25 -71 48 -184 27 -184
-36 0 -37 20 -59 103 -113 94 -60 133 -102 143 -151 28 -150 -135 -243 -282
-161 -37 20 -39 24 -42 76 l-3 55 28 -26 c64 -61 148 -77 197 -38 55 44 27
103 -84 174 -111 71 -149 128 -135 201 8 44 58 101 99 114 43 13 136 6 174
-14z m-1783 -101 c50 -63 93 -114 97 -114 3 -1 48 51 99 114 89 110 95 115
131 115 l38 0 0 -290 0 -290 -40 0 -40 0 0 226 0 227 -87 -111 c-49 -61 -93
-111 -99 -112 -5 0 -48 47 -94 105 -47 58 -88 105 -92 105 -5 0 -8 -99 -8
-220 l0 -220 -40 0 -40 0 0 290 0 290 43 -1 c42 0 43 -1 132 -114z m779 92
c55 -31 78 -78 73 -150 -6 -101 -58 -142 -194 -153 l-83 -7 0 -123 0 -124 -40
0 -40 0 0 290 0 290 123 0 c108 0 127 -3 161 -23z m226 -178 c0 -234 6 -255
74 -289 77 -37 174 -22 226 34 25 27 25 29 28 242 l3 214 46 0 46 0 -5 -207
c-5 -190 -7 -212 -28 -256 -29 -61 -70 -92 -149 -113 -129 -33 -252 11 -303
109 -20 38 -22 60 -26 255 l-4 212 46 0 46 0 0 -201z"/>
<path d="M5974 6795 c-215 -48 -384 -186 -494 -404 -112 -225 -161 -472 -160
-816 0 -104 4 -228 10 -275 59 -484 261 -803 574 -907 74 -24 95 -27 231 -27
136 0 158 3 230 27 295 98 492 372 567 787 26 147 36 499 18 663 -67 622 -360
970 -815 966 -55 -1 -127 -7 -161 -14z"/>
<path d="M4332 3630 l-41 -100 89 0 89 0 -41 93 c-22 50 -44 95 -47 100 -4 4
-26 -38 -49 -93z"/>
<path d="M5480 3700 l0 -90 69 0 c77 0 115 20 124 66 14 73 -36 114 -138 114
l-55 0 0 -90z"/>
</g>
</svg>
