<?xml version="1.0" standalone="no"?>
<!DOCTYPE svg PUBLIC "-//W3C//DTD SVG 20010904//EN"
 "http://www.w3.org/TR/2001/REC-SVG-20010904/DTD/svg10.dtd">
<svg version="1.0" xmlns="http://www.w3.org/2000/svg"
 width="1024.000000pt" height="1024.000000pt" viewBox="0 0 1024.000000 1024.000000"
 preserveAspectRatio="xMidYMid meet">
<metadata>
Created by potrace 1.11, written by Peter Selinger 2001-2013
</metadata>
<g transform="translate(0.000000,1024.000000) scale(0.100000,-0.100000)"
fill="#000000" stroke="none">
<path d="M1349 10236 c-2 -3 -22 -7 -44 -10 -243 -31 -434 -102 -648 -243
-150 -99 -349 -304 -430 -443 -79 -134 -157 -312 -172 -389 -2 -9 -8 -34 -14
-56 -41 -153 -40 -42 -40 -3980 0 -3803 0 -3765 32 -3935 26 -136 94 -308 186
-467 98 -171 314 -387 496 -495 166 -99 368 -175 515 -194 25 -3 61 -10 80
-15 47 -12 7534 -11 7618 2 95 14 122 19 187 35 435 110 793 406 985 816 39
84 85 211 94 261 2 15 8 37 11 48 33 104 34 146 32 3989 l-2 3785 -23 100
c-79 345 -234 607 -492 836 -155 137 -393 260 -606 313 -184 47 -11 45 -4005
45 -2066 1 -3758 -1 -3760 -3z"/>
</g>
</svg>
