<?xml version="1.0" standalone="no"?><!DOCTYPE svg PUBLIC "-//W3C//DTD SVG 1.1//EN" "http://www.w3.org/Graphics/SVG/1.1/DTD/svg11.dtd"><svg width="100%" height="100%" viewBox="0 0 32 32" version="1.1" xmlns="http://www.w3.org/2000/svg" xmlns:xlink="http://www.w3.org/1999/xlink" xml:space="preserve" style="fill-rule:evenodd;clip-rule:evenodd;stroke-linejoin:round;stroke-miterlimit:1.41421;"><path id="Layer1" d="M30.2339,0l-28.4678,0c-0.975556,0 -1.76608,0.79052 -1.76608,1.76608l0,28.4678c0,0.9752 0.790524,1.7661 1.76608,1.7661l15.326,0l0,-12.3921l-4.17,0l0,-4.8294l4.17,0l0,-3.5614c0,-4.13321 2.5246,-6.38407 6.2114,-6.38407c1.7661,0 3.2844,0.13149 3.7264,0.19024l0,4.31947l-2.557,0.0012c-2.0055,0 -2.3935,0.95276 -2.3935,2.35116l0,3.0834l4.7822,0l-0.6226,4.8294l-4.1596,0l0,12.3921l8.1545,0c0.9752,0 1.7661,-0.7909 1.7661,-1.7661l0,-28.4678c0,-0.97556 -0.7909,-1.76608 -1.7661,-1.76608Z" style="fill:#67b2ec;fill-rule:nonzero;"/></svg>