<?xml version="1.0" standalone="no"?><!DOCTYPE svg PUBLIC "-//W3C//DTD SVG 1.1//EN" "http://www.w3.org/Graphics/SVG/1.1/DTD/svg11.dtd"><svg width="100%" height="100%" viewBox="0 0 32 32" version="1.1" xmlns="http://www.w3.org/2000/svg" xmlns:xlink="http://www.w3.org/1999/xlink" xml:space="preserve" style="fill-rule:evenodd;clip-rule:evenodd;stroke-linejoin:round;stroke-miterlimit:1.41421;"><path id="Layer1" d="M15.9984,0c-8.83417,0 -15.9984,7.34528 -15.9984,16.406c0,7.2479 4.58405,13.3981 10.9428,15.5668c0.7989,0.151 1.0904,-0.3559 1.0904,-0.7923c0,-0.3894 -0.0131,-1.42 -0.0197,-2.7897c-4.45309,0.9903 -5.39282,-2.1989 -5.39282,-2.1989c-0.72689,-1.8968 -1.77467,-2.4003 -1.77467,-2.4003c-1.45382,-1.0172 0.10805,-0.9971 0.10805,-0.9971c1.60769,0.1175 2.45246,1.692 2.45246,1.692c1.42762,2.5077 3.74588,1.7826 4.65608,1.363c0.1474,-1.0609 0.5599,-1.7826 1.0151,-2.1922c-3.55269,-0.4163 -7.2887,-1.8229 -7.2887,-8.1107c0,-1.7893 0.62541,-3.2563 1.64699,-4.4011c-0.16371,-0.4163 -0.71381,-2.08477 0.15717,-4.34071c0,0 1.34575,-0.44314 4.40074,1.68189c1.2769,-0.36593 2.6456,-0.5472 4.0077,-0.55392c1.3589,0.00672 2.7276,0.18799 4.0045,0.55392c3.055,-2.12503 4.3942,-1.68189 4.3942,-1.68189c0.8742,2.25594 0.3241,3.92441 0.1604,4.34071c1.0282,1.1448 1.647,2.6118 1.647,4.4011c0,6.3046 -3.7425,7.6911 -7.3083,8.0973c0.5763,0.5069 1.0871,1.5073 1.0871,3.0381c0,2.1922 -0.0197,3.9614 -0.0197,4.4985c0,0.4398 0.2882,0.9501 1.1002,0.7889c6.3522,-2.172 10.933,-8.3188 10.933,-15.5634c0,-9.06072 -7.1642,-16.406 -16.0016,-16.406Z" style="fill:#67b2ec;"/></svg>